# xmcd
#
# Track frame offsets: 
#        150
#        14432
#        27632
#        41922
#        55692
#        68555
#        81085
#        94652
#        107620
#        119290
#        133075
#        147487
#        159642
#        172337
#        186772
#        201012
#        215292
#        226112
#        237870
#        251637
#        265087
#        278215
#
# Disc length: 3887 seconds
#
# Revision: 0
# Processed by: cddbd v1.5.2PL0 Copyright (c) Steve Scherf et al.
# Submitted via: ExactAudioCopy v0.95b3
#
DISCID=3d0f2d16
DTITLE=Various Artist - Original Blues Bosses
DYEAR=1998
DGENRE=Blues
TTITLE0=01 - Young Woman's Blues - Bessie Smith
TTITLE1=02 - Easy Rider Blues - Blind Lemon Jefferson
TTITLE2=03 - Bye-Bye Blues - Tommy Johnson
TTITLE3=04 - Here Me Talking To You - Ma Rainey
TTITLE4=05 - Dark Night Blues - Blind Willie McTell
TTITLE5=06 - Slippery Rag - Blind Blake
TTITLE6=07 - Black Harted Blues - Tampa Red
TTITLE7=08 - New Bumble Bee - Menphis Minnie
TTITLE8=09 - Ice And Snow - Pettie Wheatstraw
TTITLE9=10 - B O Blues - Bumble Bee Slim
TTITLE10=11 - Highway 61 Blues - Roosevelt Sykes
TTITLE11=12 - Hang It On The Wall - Charley Patton
TTITLE12=13 - Sweet Sixteen - Walter Davis
TTITLE13=14 - Ain't It A Shame - Leroy Carr
TTITLE14=15 - Down South Blues - Sleepy John Estes
TTITLE15=16 - L N Blues - Bill Gaither
TTITLE16=17 - Stop Breakin' Down Blues - Robert Johnson
TTITLE17=18 - Shaaggy Like A Bear - Blind Boy Fuller
TTITLE18=19 - Jersey Belle Blues - Lonnie Johnson
TTITLE19=20 - Plow hand Blues - Big Bill Broonzy
TTITLE20=21 - She Fooled Me - Washboard Sam
TTITLE21=22 - You Got To Step Back - Sonny Boy Williamson
EXTD=
EXTT0=
EXTT1=
EXTT2=
EXTT3=
EXTT4=
EXTT5=
EXTT6=
EXTT7=
EXTT8=
EXTT9=
EXTT10=
EXTT11=
EXTT12=
EXTT13=
EXTT14=
EXTT15=
EXTT16=
EXTT17=
EXTT18=
EXTT19=
EXTT20=
EXTT21=
PLAYORDER=
